<svg width="320" height="80" viewBox="0 0 320 80" fill="none" xmlns="http://www.w3.org/2000/svg">
  <defs>
    <linearGradient id="pathoraMarkGradient" x1="4" y1="4" x2="72" y2="72" gradientUnits="userSpaceOnUse">
      <stop stop-color="#FA8B02"/>
      <stop offset="1" stop-color="#E67A00"/>
    </linearGradient>
    <linearGradient id="pathoraTextGradient" x1="88" y1="20" x2="280" y2="60" gradientUnits="userSpaceOnUse">
      <stop stop-color="#1a1a2e"/>
      <stop offset="1" stop-color="#2d2d4a"/>
    </linearGradient>
  </defs>
  <!-- Icon: Compass rose / abstract path marker -->
  <rect x="6" y="6" width="68" height="68" rx="20" fill="url(#pathoraMarkGradient)"/>
  <!-- Inner compass paths -->
  <path d="M40 18L48 34L40 30L32 34L40 18Z" fill="white" opacity="0.95"/>
  <path d="M40 62L32 46L40 50L48 46L40 62Z" fill="white" opacity="0.7"/>
  <path d="M18 40L34 32L30 40L34 48L18 40Z" fill="white" opacity="0.7"/>
  <path d="M62 40L46 48L50 40L46 32L62 40Z" fill="white" opacity="0.7"/>
  <circle cx="40" cy="40" r="4" fill="white" opacity="0.9"/>
  <!-- Wordmark -->
  <text x="88" y="54" fill="url(#pathoraTextGradient)" font-family="'Outfit', 'Space Grotesk', system-ui, sans-serif" font-size="38" font-weight="700" letter-spacing="-0.5">Pathora</text>
</svg>
